<svg xmlns="http://www.w3.org/2000/svg" version="1.1" xmlns:xlink="http://www.w3.org/1999/xlink" width="512" height="512" x="0" y="0" viewBox="0 0 512 512.001" style="enable-background:new 0 0 512 512" xml:space="preserve" class=""><g><path fill="#e6cebe" d="M512 256c0 141.387-114.613 256-256 256C114.617 512 0 397.387 0 256S114.617 0 256 0c141.387 0 256 114.613 256 256m0 0" opacity="1" data-original="#e6cebe"></path><path fill="#d3af91" d="M512 256c0-21.379-2.637-42.14-7.574-61.988L393.609 83.195c-75.39-50-137.609 0-137.609 0s-62.219-50-137.61 0l14.801 16.746c-30.5 11.786-109.078 55.27-78.191 183.586l25.879 26.57c5.828 28.036 18.293 63.137 44.789 92.903a240 240 0 0 0 14.68 15.105l92.875 92.875A258 258 0 0 0 256 512c141.387 0 256-114.613 256-256m0 0" opacity="1" data-original="#d3af91"></path><path fill="#ff6339" d="m367.313 96.195 26.296-13c-75.39-50-137.609 0-137.609 0s-62.219-50-137.61 0l26.301 13S17 125.668 55 283.527l20.934-24.023S71.668 342.336 125.668 403c44.906 50.453 94.105 64.988 130.332 73.332 36.227-8.344 85.426-22.879 130.332-73.332 54-60.668 49.738-143.496 49.738-143.496L457 283.527c38-157.859-89.687-187.332-89.687-187.332m0 0" opacity="1" data-original="#ff6339"></path><path fill="#eb1800" d="M457 283.531 436.07 259.5s4.262 82.828-49.738 143.5c-44.91 50.45-94.102 64.988-130.332 73.328V83.191s62.219-50 137.61 0l-26.301 13S495 125.671 457 283.531m0 0" opacity="1" data-original="#eb1800"></path><path fill="#ffed93" d="M366.332 231.668c-6.664-55.668-50.664-82-110.332-82-59.664 0-103.668 26.332-110.332 82-5.11 42.656 10.332 61.332 34 85.332C207.32 345.043 163 417 256 417s48.68-71.957 76.332-100c23.668-24 39.11-42.676 34-85.332m0 0" opacity="1" data-original="#ffed93"></path><path fill="#ffe767" d="M332.332 317c-13.203 13.379-10 36.77-13.172 57.559-.09.59-.18 1.18-.281 1.761a.7.7 0 0 0-.027.192c-.102.52-.192 1.039-.293 1.558C314.46 399.32 302.102 417 256 417V149.672c59.672 0 103.672 26.328 110.332 82 5.11 42.656-10.332 61.328-34 85.328m0 0" opacity="1" data-original="#ffe767"></path><path fill="#002659" d="M256 352.742s-10.848 35.766-63.164 21.82q.268 1.771.605 3.512c11.434 6.317 33.168 14.39 62.559 7.594 29.39 6.797 51.125-1.277 62.559-7.594.226-1.16.425-2.332.605-3.511-52.316 13.945-63.164-21.82-63.164-21.82m0 0" opacity="1" data-original="#002659"></path><path fill="#001737" d="M319.16 374.559c-.09.59-.18 1.18-.281 1.761a.7.7 0 0 0-.027.192c-.102.52-.192 1.039-.293 1.558-11.43 6.32-33.168 14.399-62.559 7.602v-32.934s1.172 3.871 4.61 8.563c7 9.59 23.44 22.62 58.55 13.258m0 0" opacity="1" data-original="#001737"></path><path fill="#ffe767" d="M180.422 149.21c-7.434-7.948-18.012-12.925-29.754-12.925-22.496 0-40.734 18.235-40.734 40.73 0 15.786 8.984 29.465 22.117 36.227 6.558-29.844 23.789-51.035 48.37-64.031m0 0" opacity="1" data-original="#ffe767"></path><path fill="#ffdc00" d="M402.066 177.016c0-22.496-18.238-40.73-40.734-40.73-11.742 0-22.32 4.976-29.75 12.925 24.578 12.996 41.809 34.187 48.371 64.031 13.129-6.762 22.113-20.441 22.113-36.226m0 0" opacity="1" data-original="#ffdc00"></path><path fill="#002659" d="M228.168 256c0 8.512-6.902 15.414-15.414 15.414S197.34 264.512 197.34 256s6.902-15.414 15.414-15.414 15.414 6.902 15.414 15.414m0 0" opacity="1" data-original="#002659"></path><path fill="#001737" d="M314.66 256c0 8.512-6.902 15.414-15.414 15.414s-15.414-6.902-15.414-15.414 6.902-15.414 15.414-15.414S314.66 247.488 314.66 256m0 0" opacity="1" data-original="#001737"></path><path fill="#00347b" d="M256 314c-16.988 0-39.863 6.035-31.367 24.137 8.496 18.097 20.914 23.531 31.367 23.531 10.457 0 22.871-5.43 31.367-23.531C295.863 320.035 272.992 314 256 314m0 0" opacity="1" data-original="#00347b"></path><path fill="#002659" d="M287.371 338.14c-7.281 15.5-17.422 21.712-26.762 23.16-1.558.259-3.109.372-4.609.372V314c16.992 0 39.86 6.031 31.371 24.14m0 0" opacity="1" data-original="#002659"></path><g fill="#001737"><path d="M228.773 338.43c-1.293 0-2.535.218-3.699.61 3.934 8.058 8.656 13.51 13.621 17.034a11.55 11.55 0 0 0 1.7-6.027c0-6.414-5.204-11.617-11.622-11.617M286.926 339.04a11.6 11.6 0 0 0-3.7-.61c-6.417 0-11.617 5.203-11.617 11.617 0 2.21.63 4.27 1.7 6.027 4.96-3.523 9.683-8.98 13.617-17.035m0 0" fill="#000000" opacity="1" data-original="#000000"></path></g></g></svg>
